# xmcd
#
# Track frame offsets:
# 150
# 11797
# 31545
# 56442
# 70400
# 79602
# 94587
# 107979
# 127292
# 140515
# 162770
# 174445
# 184967
#
# Disc length: 2593 seconds
#
#
# Revision: 0
# Processed by: cddbd v1.4PL0 Copyright (c) Steve Scherf et al.
# Submitted via: FreeRIP 2.51 
#
DISCID=ac0a1f0d
DTITLE=Lisa Otey - Kitten on the Keys
DYEAR=1997
DGENRE=Blues
TTITLE0=Malpe Leaf Rag
TTITLE1=Hello, My Baby
TTITLE2=Black Bottom Stomp
TTITLE3=When The Saints Go Marching In
TTITLE4=The Amazon Rag
TTITLE5=The Entertainer
TTITLE6=Russian Rag
TTITLE7=Sweet Georga Brown
TTITLE8=The Cascades
TTITLE9=Squeeze Me
TTITLE10=Kitten on the Keys
TTITLE11=Holler Stomp
TTITLE12=Handfull of Keys
EXTD=
EXTT0=
EXTT1=
EXTT2=
EXTT3=
EXTT4=
EXTT5=
EXTT6=
EXTT7=
EXTT8=
EXTT9=
EXTT10=
EXTT11=
EXTT12=
PLAYORDER=
